<svg width="51" height="64" viewBox="0 0 51 64" fill="none" xmlns="http://www.w3.org/2000/svg">
<path d="M48.8209 26.0552C48.8209 35.6755 36.9143 51.6078 29.9939 60.0555C27.4619 63.1463 22.859 63.1463 20.327 60.0555C13.4066 51.6078 1.5 35.6755 1.5 26.0552C1.5 12.4937 12.0932 1.5 25.1604 1.5C38.2278 1.5 48.8209 12.4937 48.8209 26.0552Z" stroke="#00221D" stroke-width="3" stroke-linecap="round"/>
<path d="M42.5 25.0002C42.5 34.6648 34.6647 42.5 25 42.5C15.3353 42.5 7.5 34.6648 7.5 25.0002C7.5 15.3349 15.3353 7.5 25 7.5C34.6647 7.5 42.5 15.3349 42.5 25.0002Z" fill="#F2F6F3" stroke="#00221D" stroke-width="3" stroke-linecap="round"/>
<mask id="mask0_433_610" style="mask-type:alpha" maskUnits="userSpaceOnUse" x="7" y="7" width="36" height="36">
<path d="M42.5 25.0002C42.5 34.6648 34.6647 42.5 25 42.5C15.3353 42.5 7.5 34.6648 7.5 25.0002C7.5 15.3349 15.3353 7.5 25 7.5C34.6647 7.5 42.5 15.3349 42.5 25.0002Z" fill="#D9D9D9"/>
</mask>
<g mask="url(#mask0_433_610)">
</g>
</svg>
