<svg width="29" height="33" viewBox="0 0 29 33" fill="none" xmlns="http://www.w3.org/2000/svg">
<path d="M27.5 27.8148V12.758C27.5 11.7807 27.0903 10.8658 26.3281 10.2464C24.3258 8.61872 20.2512 5.38364 17.0088 2.50816C15.5617 1.22484 13.3621 1.14376 11.8885 2.39696L2.79707 10.1285C1.97381 10.8286 1.5 11.8507 1.5 12.9265V27.8148C1.5 29.8502 3.16294 31.5 5.21429 31.5H6.14286C8.1942 31.5 9.85714 29.8502 9.85714 27.8148V24.1297C9.85714 22.0944 11.52 20.4445 13.5714 20.4445H15.4286C17.48 20.4445 19.1429 22.0944 19.1429 24.1297V27.8148C19.1429 29.8502 20.8057 31.5 22.8571 31.5H23.7857C25.8371 31.5 27.5 29.8502 27.5 27.8148Z" stroke="white" stroke-width="3" stroke-linecap="round"/>
</svg>
