<svg width="33" height="27" viewBox="0 0 33 27" fill="none" xmlns="http://www.w3.org/2000/svg">
<path d="M32 6C32 8.76142 25.0604 11 16.5 11M32 6C32 3.23858 25.0604 1 16.5 1C7.93958 1 1 3.23858 1 6M32 6V11M16.5 11C7.93958 11 1 8.76142 1 6M16.5 11V16M1 6V11M32 11C32 13.7615 25.0604 16 16.5 16M32 11V16M16.5 16C7.93958 16 1 13.7615 1 11M1 11V16M3.44737 9.33333V13.5M9.15789 11V15.1667M23.8421 11V15.1667M29.5526 9.33333V13.5M5.07895 14.3333V18.5M10.7895 16V20.1667M18.1316 16V21M25.4737 16V20.1667M31.1842 13.5V17.6667M3.44737 19.3333V23.5M9.15789 21V25.1667M16.5 21V26M16.5 21C25.0604 21 32 18.7615 32 16M16.5 21C7.93958 21 1 18.7615 1 16M16.5 26C25.0604 26 32 23.7615 32 21V16M16.5 26C7.93958 26 1 23.7615 1 21V16M23.8421 21V25.1667M29.5526 19.3333V23.5" stroke="white" stroke-width="2" stroke-linecap="round"/>
</svg>
