<svg width="36" height="36" viewBox="0 0 36 36" fill="none" xmlns="http://www.w3.org/2000/svg">
<path d="M32.6706 7.92884C32.3 7.32853 31.6914 6.88891 30.9783 6.70963C30.2636 6.53034 29.5039 6.62464 28.8643 6.97127C27.8014 7.54628 26.52 7.54562 25.4579 6.96955L24.357 6.37262C23.3607 5.83227 22.7401 4.78973 22.7401 3.65625C22.7401 2.21125 21.4963 1 19.9582 1H16.0416C14.5035 1 13.2596 2.21125 13.2596 3.65625C13.2596 4.78981 12.6392 5.83245 11.6429 6.3732L10.5435 6.96996C9.48126 7.54653 8.19953 7.54702 7.13684 6.97127C6.49727 6.62464 5.73597 6.53032 5.0214 6.70963C4.30822 6.88893 3.69979 7.32853 3.32902 7.92884L1.37347 11.111C1.00415 11.7113 0.903666 12.4259 1.09471 13.0952C1.28573 13.766 1.75268 14.3371 2.39228 14.6837C3.43872 15.2517 4.09052 16.3468 4.09088 17.5374L4.09114 18.4626C4.0915 19.6531 3.44005 20.7483 2.3937 21.3163C1.7541 21.6642 1.28571 22.2341 1.09471 22.9034C0.903684 23.5741 1.00414 24.2887 1.37347 24.889L3.33185 28.0712C3.70115 28.6714 4.30961 29.111 5.02282 29.2904C5.73742 29.4697 6.49727 29.3754 7.13826 29.0286C8.2011 28.4537 9.48243 28.4544 10.5447 29.0305L11.6414 29.6253C12.6386 30.1661 13.2596 31.2094 13.2596 32.3438C13.2596 33.7888 14.5033 35 16.0416 35H19.9571C21.4965 35 22.739 33.7888 22.739 32.3438C22.7398 31.2094 23.3614 30.1663 24.3585 29.6255L25.4566 29.0303C26.5189 28.4542 27.8003 28.4537 28.8632 29.0286C29.5041 29.3752 30.264 29.4697 30.9772 29.2904C31.6918 29.111 32.3002 28.6714 32.6695 28.0712L34.6265 24.889C34.9958 24.2887 35.0963 23.5741 34.9053 22.9047C34.7142 22.2341 34.2473 21.6629 33.6077 21.3163C32.5612 20.7483 31.9098 19.6531 31.9098 18.4626V17.5374C31.9098 16.3468 32.5612 15.2517 33.6077 14.6837C34.2473 14.3357 34.7142 13.7659 34.9053 13.0965C35.0963 12.4258 34.9958 11.7113 34.6265 11.111L32.6706 7.92884Z" stroke="white" stroke-width="2" stroke-linecap="round"/>
<path d="M23.6666 18.0002C23.6666 21.1299 21.1296 23.6668 17.9999 23.6668C14.8702 23.6668 12.3333 21.1299 12.3333 18.0002C12.3333 14.8705 14.8702 12.3335 17.9999 12.3335C21.1296 12.3335 23.6666 14.8705 23.6666 18.0002Z" stroke="white" stroke-width="2" stroke-linecap="round"/>
</svg>
